<?xml version="1.0" encoding="utf-8"?>
<!-- Generator: Adobe Illustrator 23.0.5, SVG Export Plug-In . SVG Version: 6.00 Build 0)  -->
<svg version="1.1" id="Layer_1" xmlns="http://www.w3.org/2000/svg" xmlns:xlink="http://www.w3.org/1999/xlink" x="0px" y="0px"
	 viewBox="0 0 1920 1080" style="enable-background:new 0 0 1920 1080;" xml:space="preserve">
<style type="text/css">
	.st0{fill:none;}
	.st1{fill:none;stroke:#FFFFFF;stroke-width:2;stroke-miterlimit:10;}
</style>
<g>
	<rect x="288.83" y="353.72" class="st0" width="900" height="337.04"/>
</g>
<g>
	<rect x="427.04" y="461.44" class="st0" width="592.96" height="38.56"/>
	<path class="st1" d="M427.52,461.44h39.21v10.19h-26.68v3.92h23.54v9.4h-23.54v8.64h-12.54V461.44z"/>
	<path class="st1" d="M482.86,461.4v32.16h-12.54V461.4H482.86z"/>
	<path class="st1" d="M520.49,461.42c2.23,0,4.27,0.55,6.11,1.64c1.84,1.09,3.31,2.56,4.4,4.39c1.09,1.83,1.64,3.88,1.64,6.13
		c0,2.42-0.64,4.61-1.93,6.57c-1.28,1.95-2.98,3.43-5.08,4.41l7.01,9.02h-13.35l-6.05-7.85h-11.2v7.85h-12.54v-32.16H520.49z
		 M502.04,470.82v5.48h15.29c0.77,0,1.42-0.27,1.95-0.8c0.53-0.53,0.8-1.18,0.8-1.93c0-0.77-0.27-1.42-0.8-1.95
		c-0.53-0.53-1.18-0.8-1.95-0.8H502.04z"/>
	<path class="st1" d="M567.51,461.44c2.23,0,4.27,0.55,6.11,1.64c1.84,1.09,3.31,2.56,4.4,4.39c1.09,1.83,1.64,3.88,1.64,6.13
		c0,2.23-0.55,4.27-1.64,6.11c-1.09,1.84-2.56,3.31-4.4,4.4c-1.84,1.09-3.88,1.64-6.11,1.64h-18.45v7.85h-12.54v-32.16H567.51z
		 M564.37,476.33c0.75,0,1.39-0.27,1.93-0.8c0.53-0.53,0.8-1.18,0.8-1.93c0-0.77-0.27-1.42-0.8-1.95c-0.53-0.53-1.18-0.8-1.93-0.8
		h-15.31v5.48H564.37z"/>
	<path class="st1" d="M613.1,461.36c2.66,0.5,4.98,1.35,6.99,2.54c2,1.19,3.57,2.8,4.71,4.82c1.14,2.03,1.71,4.55,1.71,7.58v2.34
		c0,3.03-0.57,5.55-1.71,7.57c-1.14,2.02-2.71,3.63-4.71,4.82c-2,1.2-4.33,2.05-6.99,2.55c-2.66,0.5-5.5,0.75-8.53,0.75
		c-3.03,0-5.88-0.25-8.54-0.75c-2.66-0.5-5-1.35-7-2.55c-2-1.2-3.57-2.8-4.71-4.82c-1.14-2.02-1.71-4.54-1.71-7.57v-2.34
		c0-3.03,0.57-5.56,1.71-7.58c1.14-2.03,2.71-3.63,4.71-4.82c2-1.19,4.33-2.03,7-2.54c2.66-0.5,5.51-0.75,8.54-0.75
		C607.6,460.61,610.44,460.86,613.1,461.36z M613.97,477.86v-0.79c0-1.72-0.42-3.03-1.27-3.94c-0.85-0.9-1.98-1.52-3.41-1.84
		c-1.43-0.33-3-0.49-4.73-0.49c-1.74,0-3.32,0.16-4.75,0.49c-1.43,0.33-2.56,0.94-3.41,1.84c-0.85,0.9-1.27,2.21-1.27,3.94v0.79
		c0,1.74,0.42,3.06,1.27,3.96c0.85,0.9,1.98,1.52,3.41,1.84c1.43,0.33,3.01,0.49,4.75,0.49c1.72,0,3.3-0.16,4.73-0.49
		c1.43-0.33,2.56-0.94,3.41-1.84C613.55,480.92,613.97,479.6,613.97,477.86z"/>
	<path class="st1" d="M680,461.44c2.97,0,5.6,0.72,7.91,2.17c2.31,1.44,4.12,3.38,5.43,5.81c1.32,2.43,1.97,5.13,1.97,8.1
		c0,2.95-0.66,5.64-1.97,8.07c-1.32,2.43-3.13,4.38-5.43,5.83c-2.3,1.45-4.94,2.18-7.91,2.18h-28.62v-32.16H680z M682.76,477.52
		c0-1.08-0.2-2.07-0.6-2.97c-0.4-0.89-0.98-1.6-1.73-2.13c-0.76-0.53-1.68-0.79-2.76-0.79h-13.73v11.77h13.73
		c1.08,0,2.01-0.27,2.76-0.8c0.76-0.53,1.34-1.24,1.73-2.13C682.56,479.59,682.76,478.61,682.76,477.52z"/>
	<path class="st1" d="M730.01,461.42c2.23,0,4.27,0.55,6.11,1.64c1.84,1.09,3.31,2.56,4.4,4.39c1.09,1.83,1.64,3.88,1.64,6.13
		c0,2.42-0.64,4.61-1.93,6.57c-1.28,1.95-2.98,3.43-5.08,4.41l7.01,9.02h-13.35l-6.05-7.85h-11.2v7.85h-12.54v-32.16H730.01z
		 M711.56,470.82v5.48h15.29c0.77,0,1.42-0.27,1.95-0.8c0.53-0.53,0.8-1.18,0.8-1.93c0-0.77-0.27-1.42-0.8-1.95
		c-0.53-0.53-1.18-0.8-1.95-0.8H711.56z"/>
	<path class="st1" d="M760.37,461.44h14.91l17.25,32.16h-14.12l-2.54-5.5h-16.1l-2.54,5.5h-14.12L760.37,461.44z M763.41,480.25
		h8.83l-4.4-9.5L763.41,480.25z"/>
	<path class="st1" d="M842.25,461.44h14.12l-14.12,32.16h-14.91l-7.06-16.08l-7.06,16.08h-14.91l-14.12-32.16h14.12l7.44,20.36
		l7.46-20.36h14.12l7.44,20.36L842.25,461.44z"/>
	<path class="st1" d="M869.86,461.4v32.16h-12.54V461.4H869.86z"/>
	<path class="st1" d="M907.87,461.4h12.56v32.16h-14.12l-17.27-19.64v19.64h-12.54V461.4h17.25l14.12,17.04V461.4z"/>
	<path class="st1" d="M946.75,475.9h21.84v18.45h-6.27l-0.62-5c-1.24,1.23-2.67,2.21-4.28,2.94c-1.61,0.73-3.32,1.26-5.13,1.58
		c-1.81,0.32-3.63,0.48-5.44,0.48c-3.03,0-5.88-0.26-8.54-0.77c-2.66-0.51-5-1.36-7-2.55c-2-1.19-3.57-2.79-4.71-4.81
		c-1.14-2.02-1.71-4.54-1.71-7.57v-2.34c0-3.03,0.57-5.56,1.71-7.58c1.14-2.03,2.71-3.63,4.71-4.82c2-1.19,4.33-2.03,7-2.54
		c2.66-0.5,5.51-0.75,8.54-0.75c2.79,0,5.42,0.21,7.9,0.63c2.47,0.42,4.69,1.13,6.64,2.12c1.95,0.99,3.56,2.32,4.81,3.98
		c1.25,1.67,2.05,3.74,2.41,6.21h-13.33c-0.8-1.07-1.94-1.79-3.42-2.18s-3.15-0.57-5-0.57c-1.74,0-3.32,0.16-4.75,0.49
		c-1.43,0.33-2.56,0.94-3.41,1.84c-0.85,0.9-1.27,2.21-1.27,3.94v0.79c0,1.74,0.42,3.06,1.27,3.96c0.85,0.9,1.98,1.51,3.41,1.83
		c1.43,0.32,3.01,0.48,4.75,0.48c1.64,0,3.1-0.06,4.37-0.17c1.27-0.11,2.37-0.37,3.3-0.77c0.93-0.4,1.71-1,2.33-1.79h-10.1V475.9z"
		/>
	<path class="st1" d="M985.23,472c0,0.46,0.4,0.81,1.18,1.05s1.86,0.41,3.21,0.51c1.35,0.1,2.87,0.2,4.56,0.27
		c1.82,0.08,3.72,0.2,5.69,0.35c1.98,0.15,3.9,0.4,5.78,0.74c1.87,0.34,3.57,0.84,5.08,1.48c1.52,0.65,2.73,1.5,3.64,2.56
		c0.91,1.06,1.36,2.4,1.36,4.01c0,1.83-0.39,3.41-1.17,4.71c-0.78,1.31-1.87,2.39-3.25,3.25s-3,1.54-4.83,2.05
		c-1.83,0.5-3.82,0.85-5.96,1.05c-2.14,0.2-4.34,0.3-6.6,0.3c-2.82,0-5.49-0.13-7.99-0.38c-2.5-0.26-4.74-0.77-6.7-1.56
		c-1.96-0.78-3.56-1.93-4.8-3.45c-1.24-1.52-2.01-3.51-2.33-5.98h13.14c0.48,0.83,1.15,1.47,2.01,1.93c0.86,0.45,1.86,0.77,3,0.94
		c1.14,0.18,2.36,0.26,3.67,0.26c0.97,0,1.97-0.05,2.99-0.14s1.96-0.26,2.82-0.49c0.86-0.23,1.55-0.55,2.08-0.96
		c0.53-0.41,0.79-0.92,0.79-1.54c0-0.48-0.39-0.83-1.18-1.06c-0.79-0.23-1.86-0.4-3.21-0.51c-1.35-0.11-2.87-0.21-4.56-0.29
		c-1.82-0.08-3.72-0.2-5.69-0.35c-1.98-0.15-3.9-0.4-5.78-0.74c-1.88-0.34-3.57-0.84-5.08-1.48c-1.52-0.65-2.73-1.5-3.64-2.55
		s-1.36-2.38-1.36-4c0-1.85,0.39-3.43,1.17-4.73c0.78-1.3,1.87-2.38,3.25-3.25c1.39-0.87,3-1.55,4.83-2.05
		c1.83-0.49,3.82-0.85,5.96-1.05c2.14-0.21,4.34-0.31,6.6-0.31c2.82,0,5.49,0.13,7.99,0.39c2.5,0.26,4.74,0.78,6.7,1.56
		c1.96,0.77,3.56,1.92,4.8,3.43c1.24,1.52,2.01,3.52,2.33,6.01h-13.13c-0.48-0.85-1.15-1.5-2.01-1.95c-0.86-0.45-1.86-0.77-3-0.93
		c-1.14-0.17-2.37-0.25-3.67-0.25c-0.97,0-1.97,0.04-2.99,0.13c-1.02,0.09-1.96,0.25-2.82,0.48c-0.86,0.23-1.56,0.55-2.08,0.96
		C985.49,470.84,985.23,471.36,985.23,472z"/>
</g>
<g>
</g>
<g>
</g>
<g>
</g>
<g>
</g>
<g>
</g>
<g>
</g>
<g>
</g>
<g>
</g>
<g>
</g>
<g>
</g>
<g>
</g>
<g>
</g>
<g>
</g>
<g>
</g>
<g>
</g>
</svg>
